<?xml version="1.0" encoding="UTF-8" standalone="no"?>
<!DOCTYPE svg PUBLIC "-//W3C//DTD SVG 1.1//EN" "http://www.w3.org/Graphics/SVG/1.1/DTD/svg11.dtd">

<svg version="1.1" xmlns="http://www.w3.org/2000/svg" width="178.15656pt" height="146.39236pt" viewBox="-72 -72 178.15656 146.39236" style="overflow: visible; position: absolute;"><g transform="translate(25.329055786132805,-65.6814727783203) scale(1,-1)"><g>
 <g stroke="rgb(0.0%,0.0%,0.0%)">
 <g fill="rgb(0.0%,0.0%,0.0%)">
 <g stroke-width="0.4pt">
 <g>
 <g>
 <path d=" M  -19.08284 -6.38853 h  38.16568 v  12.77707 h  -38.16568 Z  " style="fill:none"></path>
 <g>
 <g transform="matrix(1.0,0.0,0.0,1.0,-15.74986,-3.05556)">
 <g stroke="rgb(0.0%,0.0%,0.0%)">
 <g fill="rgb(0.0%,0.0%,0.0%)">
 <g stroke="none" transform="scale(-1,1) translate(25.329055786132805,-65.6814727783203) scale(-1,-1)"><text alignment-baseline="baseline" y="-65.6814727783203" x="25.329055786132805" style="font-family: cmtt10; font-size: 10;">Number</text>
</g></g>
 </g>
 </g>
 </g>
 </g>
 <g>
 <path d=" M  -37.67838 -34.03947 h  14.9993 v  7.7215 h  -14.9993 Z  " style="fill:none"></path>
 <g>
 <g transform="matrix(1.0,0.0,0.0,1.0,-34.3454,-30.7065)">
 <g stroke="rgb(0.0%,0.0%,0.0%)">
 <g fill="rgb(0.0%,0.0%,0.0%)">
 <g stroke="none" transform="scale(-1,1) translate(25.329055786132805,-65.6814727783203) scale(-1,-1)"><text alignment-baseline="baseline" y="-65.6814727783203" x="25.329055786132805" style="font-family: cmr10; font-size: 10;">...</text>
</g></g>
 </g>
 </g>
 </g>
 </g>
 <path d=" M  -30.17873 -26.11798 L  -19.50769 -6.99158  " style="fill:none"></path>
 <g>
 <g transform="matrix(0.48885,0.8762,-0.8762,0.48885,-19.5077,-6.99158)">
 <g>
 <g stroke-width="0.31999pt">
 <g stroke-dasharray="none" stroke-dashoffset="0.0pt">
 <g stroke-linecap="round">
 <g stroke-linejoin="round">
 <path d=" M  -1.19998 1.59998 C  -1.09998 0.99998 0.0 0.09999 0.29999 0.0 C  0.0 -0.09999 -1.09998 -0.99998 -1.19998 -1.59998  " style="fill:none"></path>
 </g>
 </g>
 </g>
 </g>
 </g>
  </g>
 </g>
 <g>
 <path d=" M  16.34584 -36.56726 h  27.66577 v  12.77707 h  -27.66577 Z  " style="fill:none"></path>
 <g>
 <g transform="matrix(1.0,0.0,0.0,1.0,19.67882,-33.23428)">
 <g stroke="rgb(0.0%,0.0%,0.0%)">
 <g fill="rgb(0.0%,0.0%,0.0%)">
 <g stroke="none" transform="scale(-1,1) translate(25.329055786132805,-65.6814727783203) scale(-1,-1)"><text alignment-baseline="baseline" y="-65.6814727783203" x="25.329055786132805" style="font-family: cmtt10; font-size: 10;">Real</text>
</g></g>
 </g>
 </g>
 </g>
 </g>
 <path d=" M  30.17873 -23.5902 L  19.53114 -6.97597  " style="fill:none"></path>
 <g>
 <g transform="matrix(-0.53983,0.84227,-0.84227,-0.53983,19.53116,-6.97597)">
 <g>
 <g stroke-width="0.31999pt">
 <g stroke-dasharray="none" stroke-dashoffset="0.0pt">
 <g stroke-linecap="round">
 <g stroke-linejoin="round">
 <path d=" M  -1.19998 1.59998 C  -1.09998 0.99998 0.0 0.09999 0.29999 0.0 C  0.0 -0.09999 -1.09998 -0.99998 -1.19998 -1.59998  " style="fill:none"></path>
 </g>
 </g>
 </g>
 </g>
 </g>
  </g>
 </g>
 <g>
 <path d=" M  52.8578 -64.2182 h  14.9993 v  7.7215 h  -14.9993 Z  " style="fill:none"></path>
 <g>
 <g transform="matrix(1.0,0.0,0.0,1.0,56.19078,-60.88522)">
 <g stroke="rgb(0.0%,0.0%,0.0%)">
 <g fill="rgb(0.0%,0.0%,0.0%)">
 <g stroke="none" transform="scale(-1,1) translate(25.329055786132805,-65.6814727783203) scale(-1,-1)"><text alignment-baseline="baseline" y="-65.6814727783203" x="25.329055786132805" style="font-family: cmr10; font-size: 10;">...</text>
</g></g>
 </g>
 </g>
 </g>
 </g>
 <path d=" M  60.35745 -56.2967 L  44.50566 -37.12294  " style="fill:none"></path>
 <g>
 <g transform="matrix(-0.63928,0.77325,-0.77325,-0.63928,44.50568,-37.12296)">
 <g>
 <g stroke-width="0.31999pt">
 <g stroke-dasharray="none" stroke-dashoffset="0.0pt">
 <g stroke-linecap="round">
 <g stroke-linejoin="round">
 <path d=" M  -1.19998 1.59998 C  -1.09998 0.99998 0.0 0.09999 0.29999 0.0 C  0.0 -0.09999 -1.09998 -0.99998 -1.19998 -1.59998  " style="fill:none"></path>
 </g>
 </g>
 </g>
 </g>
 </g>
  </g>
 </g>
 <g>
 <path d=" M  -21.70781 -67.8571 h  43.41562 v  14.9993 h  -43.41562 Z  " style="fill:none"></path>
 <g>
 <g transform="matrix(1.0,0.0,0.0,1.0,-18.37483,-62.3019)">
 <g stroke="rgb(0.0%,0.0%,0.0%)">
 <g fill="rgb(0.0%,0.0%,0.0%)">
 <g stroke="none" transform="scale(-1,1) translate(25.329055786132805,-65.6814727783203) scale(-1,-1)"><text alignment-baseline="baseline" y="-65.6814727783203" x="25.329055786132805" style="font-family: cmtt10; font-size: 10;">Integer</text>
</g></g>
 </g>
 </g>
 </g>
 </g>
 <path d=" M  0.0 -52.6578 L  15.81732 -37.0906  " style="fill:none"></path>
 <g>
 <g transform="matrix(0.71422,0.70296,-0.70296,0.71422,15.8173,-37.0906)">
 <g>
 <g stroke-width="0.31999pt">
 <g stroke-dasharray="none" stroke-dashoffset="0.0pt">
 <g stroke-linecap="round">
 <g stroke-linejoin="round">
 <path d=" M  -1.19998 1.59998 C  -1.09998 0.99998 0.0 0.09999 0.29999 0.0 C  0.0 -0.09999 -1.09998 -0.99998 -1.19998 -1.59998  " style="fill:none"></path>
 </g>
 </g>
 </g>
 </g>
 </g>
  </g>
 </g>
 <g>
 <g stroke-dasharray="0.4pt,1.0pt" stroke-dashoffset="0.0pt">
 <g>
 <g stroke-dasharray="0.4pt,1.0pt" stroke-dashoffset="0.0pt">
 <path d=" M  -13.83289 -109.42511 h  27.66577 v  12.77707 h  -27.66577 Z  " style="fill:none"></path>
 </g>
 </g>
 <g>
 <g transform="matrix(1.0,0.0,0.0,1.0,-10.49991,-106.09213)">
 <g stroke="rgb(0.0%,0.0%,0.0%)">
 <g fill="rgb(0.0%,0.0%,0.0%)">
 <g stroke="none" transform="scale(-1,1) translate(25.329055786132805,-65.6814727783203) scale(-1,-1)"><text alignment-baseline="baseline" y="-65.6814727783203" x="25.329055786132805" style="font-family: cmtt10; font-size: 10;">Bool</text>
</g></g>
 </g>
 </g>
 </g>
 </g>
 </g>
 <g>
 <path d=" M  -61.76196 -110.53622 h  38.16568 v  14.9993 h  -38.16568 Z  " style="fill:none"></path>
 <g>
 <g transform="matrix(1.0,0.0,0.0,1.0,-58.42899,-104.98102)">
 <g stroke="rgb(0.0%,0.0%,0.0%)">
 <g fill="rgb(0.0%,0.0%,0.0%)">
 <g stroke="none" transform="scale(-1,1) translate(25.329055786132805,-65.6814727783203) scale(-1,-1)"><text alignment-baseline="baseline" y="-65.6814727783203" x="25.329055786132805" style="font-family: cmtt10; font-size: 10;">Signed</text>
</g></g>
 </g>
 </g>
 </g>
 </g>
 <g>
 <path d=" M  18.34633 -110.53622 h  48.66559 v  14.9993 h  -48.66559 Z  " style="fill:none"></path>
 <g>
 <g transform="matrix(1.0,0.0,0.0,1.0,21.6793,-104.98102)">
 <g stroke="rgb(0.0%,0.0%,0.0%)">
 <g fill="rgb(0.0%,0.0%,0.0%)">
 <g stroke="none" transform="scale(-1,1) translate(25.329055786132805,-65.6814727783203) scale(-1,-1)"><text alignment-baseline="baseline" y="-65.6814727783203" x="25.329055786132805" style="font-family: cmtt10; font-size: 10;">Unsigned</text>
</g></g>
 </g>
 </g>
 </g>
 </g>
 <path d=" M  0.0 -96.44804 L  0.0 -68.51709  " style="fill:none"></path>
 <g>
 <g transform="matrix(0.0,1.0,-1.0,0.0,0.0,-68.51709)">
 <g>
 <g stroke-width="0.31999pt">
 <g stroke-dasharray="none" stroke-dashoffset="0.0pt">
 <g stroke-linecap="round">
 <g stroke-linejoin="round">
 <path d=" M  -1.19998 1.59998 C  -1.09998 0.99998 0.0 0.09999 0.29999 0.0 C  0.0 -0.09999 -1.09998 -0.99998 -1.19998 -1.59998  " style="fill:none"></path>
 </g>
 </g>
 </g>
 </g>
 </g>
  </g>
 </g>
 <path d=" M  -42.67912 -95.33693 L  -22.18666 -68.42331  " style="fill:none"></path>
 <g>
 <g transform="matrix(0.60625,0.79616,-0.79616,0.60625,-22.18668,-68.42332)">
 <g>
 <g stroke-width="0.31999pt">
 <g stroke-dasharray="none" stroke-dashoffset="0.0pt">
 <g stroke-linecap="round">
 <g stroke-linejoin="round">
 <path d=" M  -1.19998 1.59998 C  -1.09998 0.99998 0.0 0.09999 0.29999 0.0 C  0.0 -0.09999 -1.09998 -0.99998 -1.19998 -1.59998  " style="fill:none"></path>
 </g>
 </g>
 </g>
 </g>
 </g>
  </g>
 </g>
 <path d=" M  42.67912 -95.33693 L  22.18666 -68.42331  " style="fill:none"></path>
 <g>
 <g transform="matrix(-0.60625,0.79616,-0.79616,-0.60625,22.18668,-68.42332)">
 <g>
 <g stroke-width="0.31999pt">
 <g stroke-dasharray="none" stroke-dashoffset="0.0pt">
 <g stroke-linecap="round">
 <g stroke-linejoin="round">
 <path d=" M  -1.19998 1.59998 C  -1.09998 0.99998 0.0 0.09999 0.29999 0.0 C  0.0 -0.09999 -1.09998 -0.99998 -1.19998 -1.59998  " style="fill:none"></path>
 </g>
 </g>
 </g>
 </g>
 </g>
  </g>
 </g>
 <g>
 <g stroke-dasharray="0.4pt,1.0pt" stroke-dashoffset="0.0pt">
 <g>
 <g stroke-dasharray="0.4pt,1.0pt" stroke-dashoffset="0.0pt">
 <path d=" M  -84.06575 -139.60384 h  22.4158 v  12.77707 h  -22.4158 Z  " style="fill:none"></path>
 </g>
 </g>
 <g>
 <g transform="matrix(1.0,0.0,0.0,1.0,-80.73277,-136.27086)">
 <g stroke="rgb(0.0%,0.0%,0.0%)">
 <g fill="rgb(0.0%,0.0%,0.0%)">
 <g stroke="none" transform="scale(-1,1) translate(25.329055786132805,-65.6814727783203) scale(-1,-1)"><text alignment-baseline="baseline" y="-65.6814727783203" x="25.329055786132805" style="font-family: cmtt10; font-size: 10;">Int</text>
</g></g>
 </g>
 </g>
 </g>
 </g>
 </g>
 <g>
 <path d=" M  -20.00005 -137.07605 h  14.9993 v  7.7215 h  -14.9993 Z  " style="fill:none"></path>
 <g>
 <g transform="matrix(1.0,0.0,0.0,1.0,-16.66707,-133.74307)">
 <g stroke="rgb(0.0%,0.0%,0.0%)">
 <g fill="rgb(0.0%,0.0%,0.0%)">
 <g stroke="none" transform="scale(-1,1) translate(25.329055786132805,-65.6814727783203) scale(-1,-1)"><text alignment-baseline="baseline" y="-65.6814727783203" x="25.329055786132805" style="font-family: cmr10; font-size: 10;">...</text>
</g></g>
 </g>
 </g>
 </g>
 </g>
 <path d=" M  -72.85785 -126.62677 L  -62.22276 -111.1166  " style="fill:none"></path>
 <g>
 <g transform="matrix(0.567,0.82692,-0.82692,0.567,-62.22278,-111.11661)">
 <g>
 <g stroke-width="0.31999pt">
 <g stroke-dasharray="none" stroke-dashoffset="0.0pt">
 <g stroke-linecap="round">
 <g stroke-linejoin="round">
 <path d=" M  -1.19998 1.59998 C  -1.09998 0.99998 0.0 0.09999 0.29999 0.0 C  0.0 -0.09999 -1.09998 -0.99998 -1.19998 -1.59998  " style="fill:none"></path>
 </g>
 </g>
 </g>
 </g>
 </g>
  </g>
 </g>
 <path d=" M  -12.5004 -129.15456 L  -23.16193 -111.13239  " style="fill:none"></path>
 <g>
 <g transform="matrix(-0.5095,0.86127,-0.86127,-0.5095,-23.16193,-111.13239)">
 <g>
 <g stroke-width="0.31999pt">
 <g stroke-dasharray="none" stroke-dashoffset="0.0pt">
 <g stroke-linecap="round">
 <g stroke-linejoin="round">
 <path d=" M  -1.19998 1.59998 C  -1.09998 0.99998 0.0 0.09999 0.29999 0.0 C  0.0 -0.09999 -1.09998 -0.99998 -1.19998 -1.59998  " style="fill:none"></path>
 </g>
 </g>
 </g>
 </g>
 </g>
  </g>
 </g>
 <g>
 <g stroke-dasharray="0.4pt,1.0pt" stroke-dashoffset="0.0pt">
 <g>
 <g stroke-dasharray="0.4pt,1.0pt" stroke-dashoffset="0.0pt">
 <path d=" M  -1.33249 -139.60384 h  27.66577 v  12.77707 h  -27.66577 Z  " style="fill:none"></path>
 </g>
 </g>
 <g>
 <g transform="matrix(1.0,0.0,0.0,1.0,2.00049,-136.27086)">
 <g stroke="rgb(0.0%,0.0%,0.0%)">
 <g fill="rgb(0.0%,0.0%,0.0%)">
 <g stroke="none" transform="scale(-1,1) translate(25.329055786132805,-65.6814727783203) scale(-1,-1)"><text alignment-baseline="baseline" y="-65.6814727783203" x="25.329055786132805" style="font-family: cmtt10; font-size: 10;">UInt</text>
</g></g>
 </g>
 </g>
 </g>
 </g>
 </g>
 <g>
 <path d=" M  65.3582 -137.07605 h  14.9993 v  7.7215 h  -14.9993 Z  " style="fill:none"></path>
 <g>
 <g transform="matrix(1.0,0.0,0.0,1.0,68.69118,-133.74307)">
 <g stroke="rgb(0.0%,0.0%,0.0%)">
 <g fill="rgb(0.0%,0.0%,0.0%)">
 <g stroke="none" transform="scale(-1,1) translate(25.329055786132805,-65.6814727783203) scale(-1,-1)"><text alignment-baseline="baseline" y="-65.6814727783203" x="25.329055786132805" style="font-family: cmr10; font-size: 10;">...</text>
</g></g>
 </g>
 </g>
 </g>
 </g>
 <path d=" M  12.5004 -126.62677 L  17.99208 -111.17038  " style="fill:none"></path>
 <g>
 <g transform="matrix(0.33534,0.94385,-0.94385,0.33534,17.99208,-111.17038)">
 <g>
 <g stroke-width="0.31999pt">
 <g stroke-dasharray="none" stroke-dashoffset="0.0pt">
 <g stroke-linecap="round">
 <g stroke-linejoin="round">
 <path d=" M  -1.19998 1.59998 C  -1.09998 0.99998 0.0 0.09999 0.29999 0.0 C  0.0 -0.09999 -1.09998 -0.99998 -1.19998 -1.59998  " style="fill:none"></path>
 </g>
 </g>
 </g>
 </g>
 </g>
  </g>
 </g>
 <path d=" M  72.85785 -129.15456 L  67.34695 -111.1768  " style="fill:none"></path>
 <g>
 <g transform="matrix(-0.2936,0.95782,-0.95782,-0.2936,67.34697,-111.1768)">
 <g>
 <g stroke-width="0.31999pt">
 <g stroke-dasharray="none" stroke-dashoffset="0.0pt">
 <g stroke-linecap="round">
 <g stroke-linejoin="round">
 <path d=" M  -1.19998 1.59998 C  -1.09998 0.99998 0.0 0.09999 0.29999 0.0 C  0.0 -0.09999 -1.09998 -0.99998 -1.19998 -1.59998  " style="fill:none"></path>
 </g>
 </g>
 </g>
 </g>
 </g>
  </g>
 </g>
 </g>
 </g>
 </g>
 </g>
 </g>
 </g></svg>
